<svg width="449" height="71" viewBox="0 0 449 71" fill="none" xmlns="http://www.w3.org/2000/svg">
<g clip-path="url(#clip0_6_138)">
<path d="M155.344 52.2959C150.432 52.2959 146.431 50.8424 143.364 47.9354C140.307 45.0284 138.773 41.1592 138.773 36.3994C138.773 31.6397 140.245 28.0571 143.188 25.0375C146.131 22.0179 149.986 20.5029 154.722 20.5029C159.458 20.5029 163.406 21.9871 166.225 24.9249C169.054 27.8626 170.464 31.5476 170.464 36.0002C170.464 37.2183 170.401 38.1498 170.288 38.7946H146.597C146.867 40.8623 147.747 42.5103 149.25 43.7693C150.722 45.0181 152.815 45.6323 155.458 45.6323C158.992 45.6323 161.458 44.3221 162.878 41.6505L170.06 43.7386C169.054 46.0008 167.261 48.007 164.702 49.7267C162.142 51.4668 159.023 52.3164 155.344 52.3164V52.2959ZM146.608 33.8404H162.702C162.494 31.9468 161.676 30.35 160.256 29.0705C158.815 27.791 156.96 27.1563 154.66 27.1563C152.359 27.1563 150.597 27.8217 149.126 29.1319C147.654 30.4728 146.836 32.0389 146.597 33.8404H146.608Z" fill="white"/>
<path d="M190.827 52.2959C186.143 52.2959 182.267 50.781 179.2 47.6999C176.143 44.6496 174.609 40.8725 174.609 36.338C174.609 31.8034 176.143 28.0571 179.2 25.0272C182.257 22.0076 186.112 20.4927 190.734 20.4927C194.62 20.4927 197.916 21.506 200.589 23.543C203.263 25.58 204.942 27.8421 205.626 30.3704L198.206 32.4585C197.854 31.1176 196.973 29.9303 195.615 28.9374C194.258 27.9445 192.61 27.4531 190.734 27.4531C188.257 27.4531 186.257 28.3232 184.734 30.0429C183.2 31.783 182.443 33.8813 182.443 36.3175C182.443 38.7537 183.21 40.8521 184.765 42.5922C186.299 44.363 188.299 45.2331 190.734 45.2331C192.62 45.2331 194.237 44.7724 195.615 43.8103C196.973 42.8788 197.854 41.7426 198.206 40.4119L205.626 42.4489C204.921 45.0386 203.274 47.3314 200.621 49.307C197.968 51.2825 194.703 52.2754 190.817 52.2754L190.827 52.2959Z" fill="white"/>
<path d="M225.906 52.2959C221.201 52.2959 217.284 50.781 214.196 47.7307C211.107 44.7111 209.574 40.934 209.574 36.3994C209.574 31.8649 211.107 28.0878 214.196 25.0682C217.284 22.0486 221.17 20.5029 225.875 20.5029C230.58 20.5029 234.466 22.0383 237.554 25.0682C240.612 28.0878 242.176 31.8649 242.176 36.3994C242.176 40.934 240.612 44.7111 237.523 47.7307C234.435 50.781 230.549 52.2959 225.896 52.2959H225.906ZM225.906 45.141C228.435 45.141 230.466 44.3221 232.052 42.6741C233.637 41.0466 234.435 38.9584 234.435 36.3994C234.435 33.8404 233.637 31.7728 232.052 30.1248C230.466 28.4972 228.435 27.6579 225.906 27.6579C223.378 27.6579 221.315 28.4972 219.73 30.1248C218.144 31.783 217.346 33.8711 217.346 36.3994C217.346 38.9277 218.144 41.0466 219.73 42.6741C221.315 44.3323 223.378 45.141 225.906 45.141Z" fill="white"/>
<path d="M284.676 20.5029C288.355 20.5029 291.298 21.6698 293.474 23.932C295.651 26.2248 296.739 29.4287 296.739 33.5538V51.4566H288.77V35.212C288.77 30.2988 286.832 27.8319 282.945 27.8319C280.852 27.8319 279.266 28.5586 278.147 30.0121C277.028 31.4657 276.499 33.5026 276.499 36.1128V51.4566H268.468V35.212C268.468 30.2988 266.561 27.8319 262.758 27.8319C260.613 27.8319 258.965 28.5893 257.846 30.0736C256.726 31.5885 256.167 33.6766 256.167 36.3482V51.4668H248.218V21.3423H256.167V24.9146C258.467 21.9769 261.462 20.4927 265.235 20.4927C269.359 20.4927 272.416 22.0076 274.385 25.0272C276.8 22.0076 280.209 20.4927 284.686 20.4927L284.676 20.5029Z" fill="white"/>
<path d="M317.456 52.2959C313.187 52.2959 309.601 50.781 306.72 47.7307C303.839 44.7111 302.388 40.934 302.388 36.3994C302.388 31.8649 303.829 28.0571 306.72 25.0375C309.601 22.0179 313.197 20.5029 317.456 20.5029C321.716 20.5029 324.907 22.0179 327.26 24.9761V21.3423H335.291V51.4566H327.26V47.7614C324.907 50.781 321.643 52.2959 317.456 52.2959ZM318.845 45.2638C321.291 45.2638 323.343 44.4244 325.021 42.7355C326.669 41.0466 327.519 38.9277 327.519 36.338C327.519 33.7483 326.669 31.7113 325.021 30.0326C323.343 28.3744 321.28 27.5351 318.845 27.5351C316.41 27.5351 314.285 28.3744 312.689 30.0019C311.073 31.6602 310.275 33.779 310.275 36.338C310.275 38.897 311.073 41.108 312.689 42.7662C314.275 44.4551 316.337 45.2638 318.845 45.2638Z" fill="white"/>
<path d="M343.033 51.4566V21.3423H351.034V51.4566H343.033Z" fill="white"/>
<path d="M358.981 51.4564V8.00464H366.93V51.4564H358.981Z" fill="white"/>
<path d="M403.346 52.2959C398.662 52.2959 394.786 50.781 391.718 47.6999C388.661 44.6496 387.127 40.8725 387.127 36.338C387.127 31.8034 388.661 28.0571 391.718 25.0272C394.775 22.0076 398.631 20.4927 403.253 20.4927C407.139 20.4927 410.434 21.506 413.108 23.543C415.782 25.58 417.461 27.8421 418.145 30.3704L410.724 32.4585C410.372 31.1176 409.491 29.9303 408.134 28.9374C406.776 27.9445 405.128 27.4531 403.242 27.4531C400.776 27.4531 398.765 28.3232 397.242 30.0429C395.708 31.783 394.941 33.8813 394.941 36.3175C394.941 38.7537 395.708 40.8521 397.263 42.5922C398.796 44.363 400.797 45.2331 403.232 45.2331C405.118 45.2331 406.735 44.7724 408.123 43.8103C409.471 42.8788 410.362 41.7426 410.714 40.4119L418.134 42.4489C417.43 45.0386 415.782 47.3314 413.129 49.307C410.476 51.2825 407.211 52.2754 403.325 52.2754L403.346 52.2959Z" fill="white"/>
<path d="M431.482 44.9158H448.136V51.4566H420.891V46.4614L437.047 27.8319H421.243V21.3525H447.576V26.3477L431.482 44.926V44.9158Z" fill="white"/>
<path d="M347.135 17.2785C349.762 17.2785 351.891 15.175 351.891 12.5802C351.891 9.98535 349.762 7.88184 347.135 7.88184C344.508 7.88184 342.378 9.98535 342.378 12.5802C342.378 15.175 344.508 17.2785 347.135 17.2785Z" fill="white"/>
<path d="M378.462 51.8659C381.089 51.8659 383.219 49.7624 383.219 47.1676C383.219 44.5727 381.089 42.4692 378.462 42.4692C375.835 42.4692 373.706 44.5727 373.706 47.1676C373.706 49.7624 375.835 51.8659 378.462 51.8659Z" fill="#59BC1C"/>
<path d="M1.98291 1.86295C3.17544 0.706283 4.80349 0 6.59747 0H99.7493C101.554 0 103.192 0.716519 104.385 1.88342L52.8778 46.369L1.98291 1.86295Z" fill="#3D942F"/>
<path d="M0 6.50993V63.5244C0 67.1172 2.95539 70.0345 6.59518 70.0345H79.9303L1.98063 1.86279C0.756994 3.03993 0 4.68793 0 6.50993Z" fill="#A6E61F"/>
<path d="M106.344 63.5244V6.50997C106.344 4.6982 105.597 3.06044 104.384 1.8833L52.877 46.3689L79.9317 70.0345H99.7484C103.388 70.0345 106.344 67.1173 106.344 63.5244Z" fill="#59BC1C"/>
</g>
<defs>
<clipPath id="clip0_6_138">
<rect width="448.137" height="70.0244" fill="white"/>
</clipPath>
</defs>
</svg>
